# xmcd
#
# Track frame offsets: 
#        150
#        13070
#        27967
#        38540
#        54820
#        69527
#        83257
#        94497
#        107502
#        120757
#        134117
#        147577
#        160397
#        174632
#        185317
#        196377
#
# Disc length: 2780 seconds
#
# Revision: 0
# Processed by: cddbd v1.4PL0 Copyright (c) Steve Scherf et al.
# Submitted via: ExactAudioCopy v0.90b3
#
DISCID=d00ada10
DTITLE=Janie Frickie - Always
DYEAR=1900
DGENRE=Country
TTITLE0=I'll Need Someone To Hold Me (When I Cry)
TTITLE1=Please Help Me, I'm Falling (In Love With You)
TTITLE2=Pride
TTITLE3=It Ain't Easy Bein' Easy
TTITLE4=Let's Stop Talkin' About It
TTITLE5=But Love Me
TTITLE6=Down To My Last Broken Heart
TTITLE7=What're You Doing Tonight
TTITLE8=He's A Heartache (Looking For A Place To Happen)
TTITLE9=Homeward Bound
TTITLE10=Cry
TTITLE11=Do Me With Love
TTITLE12=Walkin' A Broken Heart
TTITLE13=Always
TTITLE14=Don't Worry 'Bout Me Baby
TTITLE15=She's Single Again
EXTD=
EXTT0=
EXTT1=
EXTT2=
EXTT3=
EXTT4=
EXTT5=
EXTT6=
EXTT7=
EXTT8=
EXTT9=
EXTT10=
EXTT11=
EXTT12=
EXTT13=
EXTT14=
EXTT15=
PLAYORDER=
